<?xml version="1.0" encoding="iso-8859-1"?>
<!-- Generator: Adobe Illustrator 19.0.0, SVG Export Plug-In . SVG Version: 6.00 Build 0)  -->
<svg xmlns="http://www.w3.org/2000/svg" xmlns:xlink="http://www.w3.org/1999/xlink" version="1.1" id="Capa_1" x="0px" y="0px" viewBox="0 0 480.004 480.004" style="enable-background:new 0 0 480.004 480.004;" xml:space="preserve" width="512px" height="512px">
<g>
	<g>
		<path d="M474.272,163.682l-81.28-67.68L474.24,28.29c5.152-4.32,7.104-11.392,4.768-17.76C476.736,4.226,470.752,0.002,464,0.002    H208c-8.832,0-16,7.168-16,16v384c0,8.832,7.168,16,16,16c8.832,0,16-7.168,16-16v-208h240c6.752,0,12.736-4.224,15.04-10.56    C481.344,175.106,479.424,168.002,474.272,163.682z" fill="#d1af3f"/>
	</g>
</g>
<g>
	<g>
		<path d="M256,322.242v32.32c79.904,7.936,126.208,33.728,128,45.376c-2.112,13.952-66.4,48.064-176,48.064    c-109.568,0-173.888-34.112-176-47.936c1.792-11.744,48.096-37.568,128-45.504v-32.32C68.32,330.594,0,362.21,0,400.002    c0,44.192,93.12,80,208,80s208-35.808,208-80C416,362.178,347.68,330.562,256,322.242z" fill="#d1af3f"/>
	</g>
</g>
<g>
</g>
<g>
</g>
<g>
</g>
<g>
</g>
<g>
</g>
<g>
</g>
<g>
</g>
<g>
</g>
<g>
</g>
<g>
</g>
<g>
</g>
<g>
</g>
<g>
</g>
<g>
</g>
<g>
</g>
</svg>
